<?xml version="1.0" ?><svg style="enable-background:new 0 0 64 64;" version="1.1" viewBox="0 0 64 64" xml:space="preserve" xmlns="http://www.w3.org/2000/svg" xmlns:xlink="http://www.w3.org/1999/xlink"><g id="Layer_10"><g><path d="M63,41c0-3.115-2.005-5.81-4.988-6.705L53,32.792V24c0-3.309-2.691-6-6-6H33v-5h13    c6.065,0,11-4.935,11-11V1H42c-4.439,0-8.264,2.649-10,6.444C30.264,3.649,26.439,1,22,1H7v1c0,6.065,4.935,11,11,11h13v5H17    c-3.309,0-6,2.691-6,6v8.792l-5.012,1.503C3.005,35.19,1,37.885,1,41v15h4v4c0,1.654,1.346,3,3,3h8c1.654,0,3-1.346,3-3v-4h26v4    c0,1.654,1.346,3,3,3h8c1.654,0,3-1.346,3-3v-4h4V41z M18,11c-4.625,0-8.446-3.506-8.945-8H22c4.625,0,8.446,3.506,8.945,8H18z     M42,3h12.945c-0.499,4.494-4.32,8-8.945,8H33.055C33.554,6.506,37.375,3,42,3z M17,60c0,0.551-0.449,1-1,1H8    c-0.551,0-1-0.449-1-1v-4h2v3h2v-3h2v3h2v-3h2V60z M21,54V41c0-0.551,0.449-1,1-1h20c0.551,0,1,0.449,1,1v13H21z M57,60    c0,0.551-0.449,1-1,1h-8c-0.551,0-1-0.449-1-1v-4h2v3h2v-3h2v3h2v-3h2V60z M61,54H45V41c0-1.654-1.346-3-3-3H22    c-1.654,0-3,1.346-3,3v13H3V41c0-2.225,1.432-4.149,3.563-4.789L13,34.28V24c0-2.206,1.794-4,4-4h30c2.206,0,4,1.794,4,4v10.28    l6.437,1.931C59.568,36.851,61,38.775,61,41V54z" style="fill:#333333;"/><path d="M49,25c0-1.654-1.346-3-3-3H18c-1.654,0-3,1.346-3,3v9h34V25z M47,32H17v-7c0-0.551,0.449-1,1-1h28    c0.551,0,1,0.449,1,1V32z" style="fill:#333333;"/><path d="M10,39c-2.757,0-5,2.243-5,5s2.243,5,5,5s5-2.243,5-5S12.757,39,10,39z M10,47    c-1.654,0-3-1.346-3-3s1.346-3,3-3s3,1.346,3,3S11.654,47,10,47z" style="fill:#333333;"/><path d="M54,39c-2.757,0-5,2.243-5,5s2.243,5,5,5s5-2.243,5-5S56.757,39,54,39z M54,47    c-1.654,0-3-1.346-3-3s1.346-3,3-3s3,1.346,3,3S55.654,47,54,47z" style="fill:#333333;"/><rect height="2" style="fill:#333333;" width="18" x="23" y="42"/><rect height="2" style="fill:#333333;" width="18" x="23" y="46"/><rect height="2" style="fill:#333333;" width="18" x="23" y="50"/></g></g><g/></svg>