<?xml version="1.0" ?><!DOCTYPE svg  PUBLIC '-//W3C//DTD SVG 1.1//EN'  'http://www.w3.org/Graphics/SVG/1.1/DTD/svg11.dtd'><svg enable-background="new 0 0 256 256" height="256px" id="Layer_1" version="1.1" viewBox="0 0 256 256" width="256px" xml:space="preserve" xmlns="http://www.w3.org/2000/svg" xmlns:xlink="http://www.w3.org/1999/xlink"><g><g><path clip-rule="evenodd" d="M171.622,168.921c2.734,0,5.203-1.094,6.984-2.861l0.043-0.041     c1.761-1.788,2.852-4.265,2.852-7.01c0-2.735-1.108-5.217-2.895-7.007c-1.785-1.794-4.258-2.904-6.984-2.904     c-2.754,0-5.224,1.094-6.983,2.863l-0.042,0.041c-1.764,1.766-2.854,4.245-2.854,7.007c0,2.736,1.107,5.219,2.896,7.01     C166.422,167.811,168.895,168.921,171.622,168.921L171.622,168.921z M211.478,199c-10.199,10.234-24.291,16.565-39.855,16.565     s-29.655-6.331-39.857-16.565c-10.199-10.234-16.508-24.374-16.508-39.991c0-15.615,6.31-29.756,16.508-39.99     c10.202-10.235,24.293-16.566,39.857-16.566s29.656,6.331,39.855,16.566c10.2,10.234,16.51,24.375,16.51,39.99     C227.987,174.626,221.678,188.766,211.478,199L211.478,199z M171.622,202.426c11.948,0,22.766-4.861,30.597-12.717     c7.829-7.856,12.674-18.711,12.674-30.7c0-11.987-4.845-22.844-12.674-30.7c-7.831-7.855-18.648-12.717-30.597-12.717     c-11.947,0-22.768,4.861-30.597,12.717c-7.831,7.856-12.674,18.712-12.674,30.7c0,11.989,4.843,22.844,12.674,30.7     C148.854,197.564,159.675,202.426,171.622,202.426L171.622,202.426z M198.415,185.895c-6.857,6.881-16.331,11.136-26.793,11.136     c-10.463,0-19.938-4.255-26.794-11.136c-6.857-6.881-11.1-16.387-11.1-26.886c0-10.496,4.242-20.004,11.1-26.884     c6.856-6.88,16.331-11.137,26.794-11.137c10.462,0,19.936,4.256,26.793,11.137c6.857,6.88,11.1,16.388,11.1,26.884     C209.515,169.508,205.272,179.014,198.415,185.895L198.415,185.895z" fill="#2B78C2" fill-rule="evenodd"/><path clip-rule="evenodd" d="M46.867,240.664v3.766c0,3.627-2.932,6.57-6.548,6.57     c-3.615,0-6.547-2.943-6.547-6.57v-3.766h-5.972c-6.826,0-13.029-2.8-17.52-7.305C5.789,228.853,3,222.63,3,215.779v-113.54     c0-6.849,2.789-13.074,7.28-17.579c4.491-4.506,10.694-7.305,17.52-7.305h5.469l56.929-22.064c1.268-0.487,2.598-0.53,3.82-0.205     l37.429-14.508c1.434-0.55,2.961-0.401,4.211,0.281l37.25-14.438c0.942-0.362,1.948-0.257,2.768,0.204l40.329-15.633     c-0.031-2.424,1.081-4.589,3.808-5.645c2.725-1.056,6.513,0.344,7.698,3.42c1.184,3.076-0.685,6.667-3.409,7.722     c-2.725,1.057-5.001,0.206-6.603-1.609l-40.329,15.632c-0.299,0.897-0.979,1.659-1.929,2.024l-37.232,14.429     c-0.472,1.357-1.514,2.506-2.957,3.06L97.649,64.522c-0.693,1.073-1.718,1.947-3,2.438L67.83,77.355H228.2     c6.825,0,13.029,2.799,17.521,7.305c4.49,4.505,7.279,10.73,7.279,17.579v113.54c0,6.851-2.789,13.073-7.279,17.58     c-4.491,4.505-10.695,7.305-17.521,7.305h-5.97v3.766c0,3.627-2.934,6.57-6.548,6.57c-3.616,0-6.548-2.943-6.548-6.57v-3.766     H46.867L46.867,240.664z M223.402,202.169c4.841,0,8.764,3.938,8.764,8.795c0,4.857-3.923,8.796-8.764,8.796     s-8.766-3.938-8.766-8.796C214.637,206.107,218.562,202.169,223.402,202.169L223.402,202.169z M223.402,115.85     c4.841,0,8.764-3.938,8.764-8.796c0-4.856-3.923-8.794-8.764-8.794s-8.766,3.938-8.766,8.794     C214.637,111.911,218.562,115.85,223.402,115.85L223.402,115.85z M30.833,204.718c-2.794,0-5.06-2.272-5.06-5.077     c0-2.803,2.266-5.075,5.06-5.075h78.402c2.795,0,5.06,2.272,5.06,5.075c0,2.805-2.265,5.077-5.06,5.077H30.833L30.833,204.718z      M30.833,184.402c-2.794,0-5.06-2.272-5.06-5.077c0-2.804,2.266-5.076,5.06-5.076h69.207c2.794,0,5.06,2.272,5.06,5.076     c0,2.805-2.266,5.077-5.06,5.077H30.833L30.833,184.402z M30.833,164.087c-2.794,0-5.06-2.274-5.06-5.078     c0-2.803,2.266-5.076,5.06-5.076h66.416c2.794,0,5.06,2.273,5.06,5.076c0,2.804-2.265,5.078-5.06,5.078H30.833L30.833,164.087z      M30.833,143.77c-2.794,0-5.06-2.272-5.06-5.076s2.266-5.077,5.06-5.077h69.207c2.794,0,5.06,2.273,5.06,5.077     s-2.266,5.076-5.06,5.076H30.833L30.833,143.77z M30.833,123.454c-2.794,0-5.06-2.273-5.06-5.077c0-2.805,2.266-5.077,5.06-5.077     h78.402c2.795,0,5.06,2.272,5.06,5.077c0,2.803-2.265,5.077-5.06,5.077H30.833L30.833,123.454z M228.2,90.495H27.799     c-3.21,0-6.136,1.325-8.26,3.456s-3.444,5.067-3.444,8.288v113.54c0,3.222,1.32,6.158,3.444,8.289s5.05,3.455,8.26,3.455H228.2     c3.211,0,6.138-1.324,8.261-3.455c2.124-2.131,3.444-5.067,3.444-8.289v-113.54c0-3.221-1.32-6.157-3.444-8.288     C234.338,91.82,231.411,90.495,228.2,90.495L228.2,90.495z" fill="#3B4552" fill-rule="evenodd"/></g></g></svg>