<?xml version="1.0" ?><!DOCTYPE svg  PUBLIC '-//W3C//DTD SVG 1.1//EN'  'http://www.w3.org/Graphics/SVG/1.1/DTD/svg11.dtd'><svg enable-background="new 0 0 256 256" height="256px" id="Layer_1" version="1.1" viewBox="0 0 256 256" width="256px" xml:space="preserve" xmlns="http://www.w3.org/2000/svg" xmlns:xlink="http://www.w3.org/1999/xlink"><path d="M68,211.2c-3.533,0-6.5-2.866-6.5-6.4V51.2c0-3.535,2.967-6.4,6.5-6.4c3.535,0,6.5,2.866,6.5,6.4v153.6  C74.5,208.334,71.535,211.2,68,211.2z M42.5,156.8V99.2c0-3.535-2.965-6.4-6.5-6.4c-3.533,0-6.5,2.866-6.5,6.4v57.6  c0,3.534,2.967,6.4,6.5,6.4C39.535,163.2,42.5,160.334,42.5,156.8z M102.5,185.6V70.4c0-3.534-2.466-6.4-6-6.4s-6,2.866-6,6.4v115.2  c0,3.535,2.466,6.4,6,6.4S102.5,189.135,102.5,185.6z M163.5,156.8V99.2c0-3.535-2.967-6.4-6.5-6.4c-3.535,0-6.5,2.866-6.5,6.4v57.6  c0,3.534,2.965,6.4,6.5,6.4C160.533,163.2,163.5,160.334,163.5,156.8z M227.5,147.2v-38.4c0-3.534-2.967-6.4-6.5-6.4  c-3.535,0-6.5,2.866-6.5,6.4v38.4c0,3.534,2.965,6.399,6.5,6.399C224.533,153.6,227.5,150.734,227.5,147.2z M13.5,131.2v-6.4  c0-3.534-2.965-6.4-6.5-6.4s-6.5,2.866-6.5,6.4v6.4c0,3.534,2.965,6.399,6.5,6.399S13.5,134.734,13.5,131.2z M134.5,131.2v-6.4  c0-3.534-2.466-6.4-6-6.4s-6,2.866-6,6.4v6.4c0,3.534,2.466,6.399,6,6.399S134.5,134.734,134.5,131.2z M195.5,185.6V70.4  c0-3.534-2.967-6.4-6.5-6.4c-3.535,0-6.5,2.866-6.5,6.4v115.2c0,3.535,2.965,6.4,6.5,6.4C192.533,192,195.5,189.135,195.5,185.6z   M256.5,131.2v-6.4c0-3.534-2.965-6.4-6.5-6.4s-6.5,2.866-6.5,6.4v6.4c0,3.534,2.965,6.399,6.5,6.399S256.5,134.734,256.5,131.2z"/></svg>